<svg xmlns="http://www.w3.org/2000/svg" height="40" viewBox="0 -960 960 960" width="40"><path d="M479-193.334q-14.317 0-26.776-4.761-12.46-4.762-22.59-14.572L384.334-254q-108-97.667-190.834-191.667-82.833-94-82.833-195.666 0-78.121 53.97-131.394Q218.606-826 296.177-826q44.823 0 92.99 23.5Q437.333-779 480-716.666 523.333-779 570.833-802.5T663.66-826q78.007 0 131.84 53.273t53.833 131.394q0 104.666-88.167 200.166Q673-345.667 577.333-256l-48.098 43.474q-10.036 9.736-22.87 14.464-12.835 4.728-27.365 4.728ZM460.667-668Q430-725 386.833-754.833q-43.166-29.834-90.166-29.834-61.715 0-103.191 40.334Q152-704 152-641.095q0 43.762 21.921 88.698 21.921 44.936 62.833 93.667Q277.667-410 334-356.5q56.333 53.5 124.667 114.833 9 8.667 21 8.667t21-8.667q68.333-62 124.666-115.5 56.334-53.5 97.5-102Q764-507.667 786-552.244t22-88.773q0-62.983-41.145-103.316-41.145-40.334-103.696-40.334-47.215 0-91.02 29.834Q528.333-725 499.333-668q-2.333 6-7.889 9.5-5.555 3.5-11 3.5-5.444 0-11.277-3.5-5.834-3.5-8.5-9.5ZM480-508Z"/></svg>