<svg xmlns="http://www.w3.org/2000/svg" height="40" viewBox="0 -960 960 960" width="40"><path d="m344-596 107.667-177.333q4.909-8.491 13.522-12.579Q473.803-790 482.485-790q8.682 0 17.682 3.948 9 3.947 14.833 12.719L622-596q5.666 8.833 5.666 19.277 0 10.443-5.083 18.355-4.798 8.449-12.833 13.408-8.036 4.96-19.417 4.96H375q-11.171 0-19.55-5.168-8.378-5.168-12.366-13.2-4.75-7.589-4.75-17.944 0-10.355 5.666-19.688ZM706.333-90.667q-64.666 0-108.833-45.417Q553.334-181.5 553.334-247q0-64.667 44.166-108.833Q641.667-400 706.333-400q65.5 0 110.917 44.167 45.416 44.166 45.416 109.333 0 65.166-45.416 110.5-45.417 45.333-110.917 45.333Zm-560.999-61.034v-192.868q0-14.281 10.726-25.189 10.726-10.909 26.307-10.909h192.869q14.93 0 25.514 11.043 10.583 11.043 10.583 25.324v192.869q0 15.581-10.718 26.172-10.718 10.592-25.649 10.592H182.098q-15.581 0-26.173-10.726-10.591-10.727-10.591-26.308ZM706.77-132q47.23 0 80.897-32.916 33.666-32.915 33.666-80.666 0-47.752-33.694-80.418-33.695-32.667-81.259-32.667-47.563 0-79.638 32.649t-32.075 80.6q0 47.418 32.17 80.418 32.17 33 79.933 33Zm-520.103-24H370v-183.334H186.667V-156Zm195.999-425.333h202.001l-102-161.334-100.001 161.334Zm101.001 0ZM370-339.334Zm338 94.001Z"/></svg>