<svg width="20" height="20" viewBox="0 0 20 20" fill="none" xmlns="http://www.w3.org/2000/svg">
<path d="M9.16665 16.6667C8.93054 16.6667 8.73262 16.5868 8.5729 16.4271C8.41318 16.2674 8.33332 16.0695 8.33332 15.8333V10.8333L3.49999 4.66668C3.29165 4.3889 3.2604 4.09723 3.40624 3.79168C3.55207 3.48612 3.80554 3.33334 4.16665 3.33334H15.8333C16.1944 3.33334 16.4479 3.48612 16.5937 3.79168C16.7396 4.09723 16.7083 4.3889 16.5 4.66668L11.6667 10.8333V15.8333C11.6667 16.0695 11.5868 16.2674 11.4271 16.4271C11.2673 16.5868 11.0694 16.6667 10.8333 16.6667H9.16665ZM9.99998 10.25L14.125 5.00001H5.87499L9.99998 10.25Z"/>
</svg>
