<svg xmlns="http://www.w3.org/2000/svg" height="40" viewBox="0 -960 960 960" width="40"><path d="M224-150.667q-30.85 0-52.091-21.242Q150.667-193.15 150.667-224v-512q0-30.85 21.242-52.091Q193.15-809.333 224-809.333h236.667q8.166 0 14.25 6.129Q481-797.076 481-788.661t-6.083 14.538Q468.833-768 460.667-768H224q-12 0-22 10t-10 22v512q0 12 10 22t22 10h236.667q8.166 0 14.25 6.129Q481-179.743 481-171.328q0 8.416-6.083 14.538-6.084 6.123-14.25 6.123H224ZM726.667-460H387q-8.817 0-14.908-6.252Q366-472.503 366-480.918t6.092-14.415q6.091-6 14.908-6h339.667L647-581q-6.333-6.333-6.833-15.262-.5-8.928 6.833-15.833 7.334-6.905 15.073-6.071 7.739.833 15.26 6.5L783-506q10.333 11.909 10.333 26.485 0 14.576-10.333 24.848L677.667-349.334q-5.2 6-13.967 6.616-8.766.615-16.294-6.616-7.072-7.089-7.572-15.211t7.5-15.455l79.333-80Z"/></svg>