<svg xmlns="http://www.w3.org/2000/svg" height="40" viewBox="0 -960 960 960" width="40"><path d="M480-190q-15 0-30-6t-26-18.667L132-566.334q-8.667-8.999-13-21.166t-4.333-25.167q0-8 2.833-16t6.5-16.666l66.667-136.334q8.333-18.666 26.5-30Q235.333-823 256.667-823H704q20.667 0 38.833 11.333 18.167 11.334 27.834 30l66.666 136.334q2.334 8.666 5.167 16.666 2.833 8 2.833 16 0 13-4.333 25.167-4.333 12.167-13 21.166L536.666-214.667Q525-202 510-196q-15 6-30 6ZM354-621h252.667l-80.334-160.667h-92.666L354-621Zm105.667 384.667v-343.334H175l284.667 343.334Zm41.333 0 284.667-343.334H501v343.334ZM652.667-621h151l-72-142.667q-4-8-12-13t-17-5H572.333L652.667-621Zm-495.001 0H308l80.334-160.667H257.333q-9 0-17 5t-12 13L157.666-621Z"/></svg>