<svg xmlns="http://www.w3.org/2000/svg" height="40" viewBox="0 -960 960 960" width="40"><path d="M224-110.667q-30.833 0-52.083-21.25T150.667-184v-456q-17-5.964-28.5-23.913-11.5-17.949-11.5-39.754V-776q0-30.833 21.25-52.083T184-849.333h592q30.833 0 52.083 21.25T849.333-776v72.333q0 21.805-11.5 39.754-11.5 17.949-28.5 23.913v456q0 30.833-21.25 52.083T736-110.667H224Zm-32-519.667v441.667q0 16 11.5 26.5t28.5 10.5h505q14 0 23-9t9-23v-446.667H192Zm-8.333-40.333H777q14 0 23-9t9-23V-776q0-14-9-23t-23-9H183.667q-14 0-23 9t-9 23v73.333q0 14 9 23t23 9Zm207.666 225.333h179.334q7.466 0 12.4-5.477Q588-456.288 588-463.819q0-6.848-4.933-12.014-4.934-5.167-12.4-5.167H390.333q-7.466 0-12.4 5.319-4.933 5.318-4.933 12.5 0 7.181 5.433 12.514 5.434 5.333 12.9 5.333ZM481-390.667Z"/></svg>