<svg xmlns="http://www.w3.org/2000/svg" height="40" viewBox="0 -960 960 960" width="40"><path d="M83.334-260.779q0-30.953 14.687-51.108 14.688-20.155 41.954-32.881 53.692-24.565 104.261-39.899Q294.804-400 372-400q77.083 0 127.208 15.333 50.125 15.334 104.514 39.913 26.028 12.509 40.986 32.711 14.959 20.202 14.959 51.211V-235q0 15.833-11.992 29.583-11.992 13.75-31.341 13.75H126.667q-18.833 0-31.083-12.25T83.334-235v-25.779Zm750.562 69.112H725.667q4-9.334 7-20.083 3-10.75 3-23.25v-18.302q0-34.698-11.947-72.513Q711.773-363.63 681.667-388q38.333 6.333 72.999 17 34.667 10.667 65.36 25.683 25.973 13.317 41.64 36.144 15.667 22.827 15.667 47.84V-235q0 18.833-12.583 31.083-12.584 12.25-30.854 12.25ZM371.667-517q-53.1 0-89.05-35.95-35.95-35.95-35.95-88.716 0-52.767 35.95-88.717 35.95-35.95 88.717-35.95 52.766 0 88.716 35.875Q496-694.583 496-642q0 53.1-35.875 89.05Q424.25-517 371.667-517Zm305.999-125q0 53.1-35.868 89.05Q605.93-517 553.118-517q-3.452 0-8.118-.667-4.667-.666-7.333-2 18.988-25.704 28.16-56.526Q575-607.016 575-641.594q0-34.578-10.167-64.325t-27.166-58.414q3.166-.5 7.666-1.25t7.667-.75q52.916 0 88.791 35.875T677.666-642ZM124.667-233h493.667v-27.667q0-15.667-6.717-26.449Q604.9-297.899 585.334-308 537.667-332.334 488-345.5q-49.666-13.167-116.5-13.167-66.833 0-116.5 13.167-49.666 13.166-96.666 37.5-19.567 10.101-26.617 20.884-7.05 10.782-7.05 26.449V-233ZM371.18-558.333q34.82 0 59.154-24.18 24.333-24.18 24.333-59t-24.457-59.153Q405.753-725 370.932-725q-34.82 0-58.876 24.458Q288-676.085 288-641.265t24.18 58.876q24.18 24.056 59 24.056ZM371.667-233Zm-.333-408.666Z"/></svg>